<svg fill="none" height="24" viewBox="0 0 24 24" width="24" xmlns="http://www.w3.org/2000/svg"><clipPath id="a"><path d="m0 0h24v24h-24z"/></clipPath><g clip-path="url(#a)"><path clip-rule="evenodd" d="m1.70711.292893c-.39053-.3905241-1.023692-.3905241-1.414217 0-.390524.390525-.390524 1.023687 0 1.414217l4.275617 4.27561c-1.8088 1.55698-3.31815 3.43582-4.449666 5.54448-.1536335.2863-.1585827.6294-.013271.9201l.894427-.4472c-.894427.4472-.894259.4475-.894075.4479l.000445.0009.001169.0023.003451.0068.011348.0222c.009537.0186.023019.0445.040415.0774.034787.0658.08527.1592.151218.2765.131821.2343.325879.5644.580365.9585.507734.7861 1.262494 1.8369 2.251124 2.8914 1.95902 2.0896 4.95503 4.3161 8.85454 4.3161l.0163-.0002c2.0685-.0338 4.08-.6463 5.8098-1.7596l4.4668 4.4668c.3905.3905 1.0237.3905 1.4142 0s.3905-1.0237 0-1.4142zm.8673 12.414607c-.17849-.2763-.32276-.5159-.43184-.7043 1.00678-1.745 2.30774-3.30177 3.84453-4.60183l2.54894 2.54894c-.09952.15879-.18799.32469-.26459.49659-.21863.4907-.33618 1.0203-.34566 1.5574s.08932 1.0706.2905 1.5687c.20118.498.50062.9505.88045 1.3303.37983.3799.83228.6793 1.33036.8805.4981.2011 1.0315.2999 1.5686.2905.5371-.0095 1.0668-.1271 1.5574-.3457.172-.0766.3379-.1651.4966-.2646l2.3217 2.3217c-1.3277.7668-2.8341 1.1877-4.3796 1.2144-3.09668-.0032-5.59785-1.7753-7.38726-3.684-.88637-.9454-1.56911-1.8947-2.03013-2.6086zm7.35107-.6679c.00359-.2036.03824-.405.10242-.5974l2.53 2.53c-.1924.0641-.3939.0988-.5975.1024-.2685.0047-.5352-.0447-.7843-.1453-.249-.1006-.4752-.2503-.6651-.4402-.19-.1899-.3397-.4161-.4403-.6652-.10056-.249-.14996-.5158-.14522-.7843z" fill="#000" fill-opacity=".3" fill-rule="evenodd"/><path d="m9.90002 4.24002c.68838-.16112 1.39308-.24166 2.09998-.23999 7 0 11 7.99997 11 7.99997-.607 1.1356-1.3309 2.2048-2.16 3.19" stroke="#000" stroke-linecap="round" stroke-linejoin="round" stroke-opacity=".3" stroke-width="2"/></g></svg>
