<svg width="67" height="63" viewBox="0 0 67 63" fill="none" xmlns="http://www.w3.org/2000/svg">
<path d="M40.4259 48.5185C39.8292 48.1594 39.0587 48.3547 38.7028 48.9532C37.6119 50.7823 35.6166 51.9184 33.4998 51.9184C31.3788 51.9184 29.3856 50.7823 28.2968 48.9553C27.9409 48.3568 27.1662 48.1615 26.5737 48.5206C25.977 48.8776 25.7843 49.6504 26.1382 50.2468C27.6792 52.8319 30.4995 54.4384 33.4977 54.4384C36.4939 54.4384 39.3142 52.8319 40.8573 50.2468C41.2153 49.6525 41.0206 48.8755 40.4259 48.5185Z" fill="white"/>
<path d="M22.554 39.333C24.2851 39.333 25.6884 38.0129 25.6884 36.3846C25.6884 34.7562 24.2851 33.4362 22.554 33.4362C20.823 33.4362 19.4197 34.7562 19.4197 36.3846C19.4197 38.0129 20.823 39.333 22.554 39.333Z" fill="white"/>
<path d="M44.4464 39.333C46.1774 39.333 47.5807 38.0129 47.5807 36.3846C47.5807 34.7562 46.1774 33.4362 44.4464 33.4362C42.7153 33.4362 41.312 34.7562 41.312 36.3846C41.312 38.0129 42.7153 39.333 44.4464 39.333Z" fill="white"/>
<path d="M60.8254 34.0872C59.7974 33.4761 58.4972 33.3878 57.3435 33.768C57.3414 33.747 57.3372 33.726 57.3352 33.7071H57.6283C57.6262 32.9868 57.5864 32.2811 57.5362 31.5818C58.8908 28.9904 59.6718 26.0483 59.6718 22.9151C59.6718 12.5748 51.3177 4.19995 41.0102 4.19995C38.3323 4.19995 35.803 4.80475 33.4999 5.82535C31.1968 4.80475 28.6696 4.19995 25.9896 4.19995C15.6842 4.19995 7.32803 12.5748 7.32803 22.9151C7.32803 26.0462 8.10691 28.9904 9.46366 31.5818C9.41341 32.2811 9.37363 32.9868 9.37153 33.7071H9.66466C9.66256 33.7281 9.66047 33.749 9.65628 33.77C8.50891 33.392 7.21497 33.476 6.18694 34.0766C5.28034 34.6079 3.82728 35.9855 4.26697 39.2364C4.71503 42.5501 6.86741 43.9971 8.59684 45.1562C9.44272 45.7253 10.1734 46.2167 10.5482 46.8068L11.1156 47.7035C14.5913 56.954 22.9516 62.9999 33.4999 62.9999C44.0482 62.9999 52.4086 56.9519 55.8821 47.7035L56.4516 46.8068C56.8264 46.2167 57.555 45.7253 58.4009 45.1604C60.1303 43.997 62.2827 42.5543 62.7308 39.2384C63.1704 36.0002 61.7257 34.6206 60.8254 34.0872ZM6.75853 38.8983C6.65384 38.1255 6.60569 36.7542 7.45784 36.2523C8.05456 35.8995 8.92138 36.0569 9.37781 36.4034L9.42388 36.4391C9.40503 36.8759 9.36734 37.3064 9.36734 37.7516C9.36734 39.545 9.52438 41.2796 9.8175 42.9408C8.37491 41.9664 7.04119 41.0004 6.75853 38.8983ZM33.4999 60.4799C20.973 60.4799 11.8798 50.9207 11.8798 37.7537C11.8798 33.6357 12.7697 29.8683 14.3756 26.6385C16.1804 27.5793 17.667 28.1063 20.2297 28.1063C24.4717 28.1063 27.8949 24.9333 30.3488 21.8799C33.4559 25.0005 37.9575 28.1063 42.5805 28.1063C45.8551 28.1063 49.4564 27.2537 52.1343 25.7649V25.7627C54.0354 29.1857 55.12 33.2493 55.12 37.7537C55.12 50.9207 46.0268 60.4799 33.4999 60.4799ZM60.2413 38.8983C59.9586 41.0004 58.6249 41.9684 57.1802 42.9408C57.4754 41.2796 57.6304 39.5471 57.6304 37.7516C57.6304 37.3064 57.5906 36.8759 57.5738 36.4391L57.6262 36.3972C58.0868 36.057 58.9557 35.9036 59.5462 36.2564C60.3962 36.7604 60.3481 38.1276 60.2413 38.8983Z" fill="white"/>
</svg>
